<?xml version="1.0"?>
<svg width="528" height="297" xmlns="http://www.w3.org/2000/svg" xmlns:svg="http://www.w3.org/2000/svg" version="1.1">
 <title id="title4485">Python programming language logo</title>
 <metadata id="metadata4487">image/svg+xmlimage/svg+xmlPython programming language logo</metadata>
 <defs id="defs4504">
  <linearGradient id="vlpc" x1="0.5" x2="0.23" y1="0.82" y2="0.45">
   <stop id="stop4489" offset="0" stop-color="#ffd43b"/>
   <stop id="stop4491" offset="1" stop-color="#ffe873"/>
  </linearGradient>
  <linearGradient id="vlpb" x1="0" x2="0.75" y1="0" y2="0.64">
   <stop id="stop4494" offset="0" stop-color="#5a9fd4"/>
   <stop id="stop4496" offset="1" stop-color="#306998"/>
  </linearGradient>
 </defs>
 <g class="layer">
  <title>Layer 1</title>
  <g id="svg_1">
   <path d="m263.61,41.01c-9.25,0.03 -18.07,0.8 -25.8,2.13c-22.86,3.93 -27,12.12 -27,27.26l0,19.98l53.99,0l0,6.66l-53.99,0l-20.26,0c-15.71,0 -29.45,9.15 -33.73,26.57c-4.97,19.96 -5.2,32.44 0,53.27c3.83,15.53 12.99,26.57 28.69,26.57l18.54,0l0,-23.95c0,-17.31 15.43,-32.58 33.73,-32.58l53.93,0c15.03,0 27,-12.01 27,-26.63l0,-49.92c0,-14.22 -12.35,-24.87 -27,-27.26c-9.26,-1.5 -18.89,-2.17 -28.13,-2.13l0.02,0l0,0.01zm-29.21,16.07c5.58,0 10.13,4.5 10.13,10.01c0,5.52 -4.58,9.97 -10.13,9.97c-5.6,0 -10.15,-4.45 -10.15,-9.97c0,-5.52 4.55,-10.01 10.15,-10.01z" fill="url(#vlpb)" id="path4518"/>
   <path d="m325.46,97.03l0,23.29c0,18.05 -15.77,33.24 -33.73,33.24l-53.93,0c-14.78,0 -27,12.27 -27,26.63l0,49.92c0,14.22 12.7,22.56 27,26.63c17.08,4.89 33.48,5.77 53.93,0c13.6,-3.82 27,-11.51 27,-26.63l0,-19.98l-53.93,0l0,-6.65l53.93,0l27,0c15.69,0 21.54,-10.63 27,-26.57c5.62,-16.43 5.4,-32.22 0,-53.27c-3.88,-15.17 -11.3,-26.57 -27,-26.57l-20.26,0l-0.02,-0.02l0.01,0zm-30.33,126.42c5.58,0 10.13,4.45 10.13,9.97c0,5.52 -4.55,10.01 -10.13,10.01c-5.58,0 -10.15,-4.5 -10.15,-10.01c0,-5.52 4.58,-9.97 10.15,-9.97z" fill="url(#vlpc)" id="path4520"/>
  </g>
  <text fill="#000000" font-family="Sans-serif" font-size="24" id="svg_9" stroke="#000000" stroke-width="0" text-anchor="middle" textLength="0" transform="matrix(1.84248 0 0 1.84248 -221.012 -132.591)" x="329.45" xml:space="preserve" y="160.34"/>
 </g>
</svg>